<?xml version="1.0" encoding="UTF-8"?>
<svg width="22px" height="24px" viewBox="0 0 22 24" version="1.1" xmlns="http://www.w3.org/2000/svg" xmlns:xlink="http://www.w3.org/1999/xlink">
    <title>bot-message-square2 copy 2</title>
    <g id="page-1" stroke="none" stroke-width="1" fill="none" fill-rule="evenodd">
        <g id="bot-message-square2-copy-2" transform="translate(1, 1)" stroke="#2563EB">
            <polyline id="path" stroke-width="2" stroke-linecap="round" points="10 4 10 0 13.7175977 0"></polyline>
            <path d="M6,16 L2,20 L2,6 C2,4.8954305 2.8954305,4 4,4 L16,4 C17.1045695,4 18,4.8954305 18,6 L18,14 C18,15.1045695 17.1045695,16 16,16 L6,16 Z" id="path" stroke-width="2"></path>
            <line x1="0" y1="10" x2="2" y2="10" id="path" stroke-width="2" stroke-linecap="round"></line>
            <g id="group" transform="translate(6.1702, 8.3729)" stroke-linecap="round" stroke-width="1.8">
                <line x1="1.96201552" y1="1.44845529" x2="-2.26709442e-18" y2="0.0662486846" id="path"></line>
                <line x1="1.89935666" y1="1.53314281" x2="0.111873086" y2="3.1346741" id="path"></line>
                <line x1="7.39828849" y1="0" x2="7.42520594" y2="2.99987924" id="path"></line>
            </g>
            <line x1="18" y1="10" x2="20" y2="10" id="path" stroke-width="2" stroke-linecap="round"></line>
        </g>
    </g>
</svg>