<svg width="480" height="240" viewBox="0 0 480 240" fill="none" xmlns="http://www.w3.org/2000/svg">
  <rect width="480" height="240" fill="#F5F7FA"/>
  
  <!-- Suggestions area -->
  <rect x="100" y="40" width="280" height="120" rx="4" fill="#F9FAFB" stroke="#E5E7EB" stroke-width="1"/>
  
  <!-- Suggestion cards -->
  <rect x="120" y="60" width="110" height="40" rx="4" fill="#FFFFFF" stroke="#E5E7EB" stroke-width="1"/>
  <rect x="130" y="70" width="90" height="8" rx="2" fill="#111827"/>
  <rect x="130" y="82" width="70" height="6" rx="2" fill="#6B7280"/>
  
  <rect x="250" y="60" width="110" height="40" rx="4" fill="#FFFFFF" stroke="#E5E7EB" stroke-width="1"/>
  <rect x="260" y="70" width="90" height="8" rx="2" fill="#111827"/>
  <rect x="260" y="82" width="70" height="6" rx="2" fill="#6B7280"/>
  
  <rect x="120" y="110" width="110" height="40" rx="4" fill="#FFFFFF" stroke="#E5E7EB" stroke-width="1"/>
  <rect x="130" y="120" width="90" height="8" rx="2" fill="#111827"/>
  <rect x="130" y="132" width="70" height="6" rx="2" fill="#6B7280"/>
  
  <rect x="250" y="110" width="110" height="40" rx="4" fill="#FFFFFF" stroke="#E5E7EB" stroke-width="1"/>
  <rect x="260" y="120" width="90" height="8" rx="2" fill="#111827"/>
  <rect x="260" y="132" width="70" height="6" rx="2" fill="#6B7280"/>
  
  <!-- Highlight effect -->
  <rect x="95" y="35" width="290" height="130" rx="6" stroke="#10B981" stroke-width="2" stroke-dasharray="4 4" fill="none"/>
  
  <!-- Explanation text -->
  <rect x="100" y="180" width="280" height="40" rx="6" fill="#10B981" fill-opacity="0.1"/>
  <text x="240" y="200" font-family="Arial" font-size="14" fill="#065F46" text-anchor="middle">Quick Suggestions</text>
  <text x="240" y="215" font-family="Arial" font-size="12" fill="#059669" text-anchor="middle">Click to quickly ask common questions</text>
  
  <!-- Arrow pointing to suggestions -->
  <path d="M240 170 L240 150" stroke="#10B981" stroke-width="2" stroke-linecap="round"/>
  <path d="M235 155 L240 150 L245 155" fill="none" stroke="#10B981" stroke-width="2" stroke-linecap="round" stroke-linejoin="round"/>
</svg>

