<svg width="480" height="240" viewBox="0 0 480 240" fill="none" xmlns="http://www.w3.org/2000/svg">
  <rect width="480" height="240" fill="#F5F7FA"/>
  
  <!-- Sidebar illustration -->
  <rect x="100" y="40" width="120" height="160" rx="8" fill="#424B5A"/>
  
  <!-- Home navigation highlighted -->
  <rect x="110" y="100" width="100" height="20" rx="4" fill="#3B82F6"/>
  <circle cx="125" cy="110" r="6" fill="white"/>
  <path d="M125 106 L125 114 M121 110 L129 110" stroke="white" stroke-width="2" stroke-linecap="round"/>
  <rect x="140" y="107" width="40" height="6" rx="3" fill="white"/>
  
  <!-- Other menu items -->
  <rect x="110" y="130" width="100" height="8" rx="4" fill="#D1D5DB" fill-opacity="0.5"/>
  <rect x="110" y="150" width="100" height="8" rx="4" fill="#D1D5DB" fill-opacity="0.5"/>
  <rect x="110" y="170" width="100" height="8" rx="4" fill="#D1D5DB" fill-opacity="0.5"/>
  
  <!-- Profile icon -->
  <circle cx="130" cy="70" r="15" fill="#6B7280"/>
  <rect x="155" y="60" width="40" height="6" rx="3" fill="#D1D5DB"/>
  <rect x="155" y="72" width="30" height="6" rx="3" fill="#9CA3AF"/>
  
  <!-- Highlight effect -->
  <rect x="105" y="95" width="110" height="30" rx="6" stroke="#FBBF24" stroke-width="2" stroke-dasharray="4 4" fill="none"/>
  
  <!-- Arrow pointing to home -->
  <path d="M250 110 L230 110" stroke="#FBBF24" stroke-width="2" stroke-linecap="round"/>
  <path d="M230 105 L220 110 L230 115" fill="none" stroke="#FBBF24" stroke-width="2" stroke-linecap="round" stroke-linejoin="round"/>
  
  <!-- Explanation text -->
  <rect x="260" y="95" width="120" height="30" rx="6" fill="#FBBF24" fill-opacity="0.2"/>
  <text x="320" y="115" font-family="Arial" font-size="12" fill="#92400E" text-anchor="middle">Home Navigation</text>
</svg>

