<svg width="480" height="240" viewBox="0 0 480 240" fill="none" xmlns="http://www.w3.org/2000/svg">
  <rect width="480" height="240" fill="#F5F7FA"/>
  
  <!-- Sidebar illustration -->
  <rect x="100" y="40" width="120" height="160" rx="8" fill="#424B5A"/>
  
  <!-- Workspace section header -->
  <rect x="110" y="90" width="100" height="15" rx="2" fill="#6B7280"/>
  <text x="160" y="101" font-family="Arial" font-size="10" fill="white" text-anchor="middle">WORKSPACES</text>
  
  <!-- Plus button -->
  <circle cx="195" cy="97" r="6" fill="#3B82F6"/>
  <path d="M195 94 L195 100 M192 97 L198 97" stroke="white" stroke-width="1.5" stroke-linecap="round"/>
  
  <!-- Workspace items -->
  <rect x="110" y="115" width="100" height="20" rx="4" fill="#3B82F6" fill-opacity="0.2"/>
  <g transform="translate(119, 119) scale(0.6)">
    <path d="M15 6v12a3 3 0 1 0 3-3H6a3 3 0 1 0 3 3V6a3 3 0 1 0-3 3h12a3 3 0 1 0-3-3" fill="#3B82F6"/>
  </g>
  <rect x="140" y="122" width="50" height="6" rx="3" fill="#3B82F6"/>
  
  <rect x="110" y="145" width="100" height="20" rx="4" fill="#D1D5DB" fill-opacity="0.3"/>
  <g transform="translate(119, 149) scale(0.6)">
    <path d="M15 6v12a3 3 0 1 0 3-3H6a3 3 0 1 0 3 3V6a3 3 0 1 0-3 3h12a3 3 0 1 0-3-3" fill="#EC4899"/>
  </g>
  <rect x="140" y="152" width="50" height="6" rx="3" fill="#6B7280"/>
  
  <rect x="110" y="175" width="100" height="20" rx="4" fill="#D1D5DB" fill-opacity="0.3"/>
  <g transform="translate(119, 179) scale(0.6)">
    <path d="M15 6v12a3 3 0 1 0 3-3H6a3 3 0 1 0 3 3V6a3 3 0 1 0-3 3h12a3 3 0 1 0-3-3" fill="#8B5CF6"/>
  </g>
  <rect x="140" y="182" width="50" height="6" rx="3" fill="#6B7280"/>
  
  <!-- Highlight effect -->
  <rect x="105" y="85" width="110" height="115" rx="6" stroke="#10B981" stroke-width="2" stroke-dasharray="4 4" fill="none"/>
  
  <!-- Arrow pointing to workspaces -->
  <path d="M250 140 L230 140" stroke="#10B981" stroke-width="2" stroke-linecap="round"/>
  <path d="M230 135 L220 140 L230 145" fill="none" stroke="#10B981" stroke-width="2" stroke-linecap="round" stroke-linejoin="round"/>
  
  <!-- Explanation text -->
  <rect x="260" y="125" width="120" height="30" rx="6" fill="#10B981" fill-opacity="0.2"/>
  <text x="320" y="145" font-family="Arial" font-size="12" fill="#065F46" text-anchor="middle">Workspace Management</text>
</svg>
